<?xml version="1.0" standalone="no"?>
<!DOCTYPE svg PUBLIC "-//W3C//DTD SVG 20010904//EN"
 "http://www.w3.org/TR/2001/REC-SVG-20010904/DTD/svg10.dtd">
<svg version="1.0" xmlns="http://www.w3.org/2000/svg"
 width="500.000000pt" height="500.000000pt" viewBox="0 0 500.000000 500.000000"
 preserveAspectRatio="xMidYMid meet">
<metadata>
Created by potrace 1.14, written by Peter Selinger 2001-2017
</metadata>
<g transform="translate(0.000000,500.000000) scale(0.100000,-0.100000)"
fill="#000000" stroke="none">
<path d="M0 2500 l0 -2500 2500 0 2500 0 0 2500 0 2500 -2500 0 -2500 0 0
-2500z m4750 0 l0 -2250 -2250 0 -2250 0 0 2250 0 2250 2250 0 2250 0 0 -2250z"/>
<path d="M380 2500 l0 -2110 2120 0 2120 0 0 2110 0 2110 -2120 0 -2120 0 0
-2110z m805 1418 c153 -523 230 -767 235 -756 6 10 102 331 236 791 5 15 22
17 165 17 87 0 159 -4 159 -9 0 -8 215 -1123 224 -1164 4 -16 -6 -17 -142 -15
l-146 3 -66 390 c-37 215 -69 396 -71 403 -2 7 -56 -170 -119 -393 l-115 -405
-130 0 -130 0 -115 407 c-63 224 -117 399 -119 388 -2 -11 -34 -193 -70 -405
l-66 -385 -146 -3 -146 -3 43 223 c24 123 76 391 116 596 l72 372 158 0 157 0
16 -52z m1987 -538 c130 -322 238 -588 238 -592 0 -5 -63 -8 -139 -8 l-139 0
-30 83 c-16 45 -35 99 -43 120 l-13 37 -227 0 -227 0 -42 -120 -42 -120 -139
0 c-77 0 -139 3 -139 8 0 4 107 271 237 595 l238 587 115 -2 114 -3 238 -585z
m1208 470 l0 -120 -170 0 -170 0 0 -475 0 -475 -135 0 -135 0 0 475 0 475
-167 2 -168 3 -3 118 -3 117 476 0 475 0 0 -120z m-2928 -1624 c183 -39 306
-158 325 -316 l6 -51 -128 3 -129 3 -9 35 c-21 82 -81 120 -191 120 -103 0
-156 -26 -183 -87 -11 -28 -11 -38 1 -66 18 -45 65 -66 260 -116 240 -61 329
-111 384 -214 24 -47 27 -62 27 -152 0 -83 -4 -109 -23 -151 -43 -96 -141
-170 -277 -210 -85 -25 -287 -25 -370 0 -191 58 -293 169 -320 349 l-7 47 135
0 135 0 12 -47 c14 -59 77 -123 137 -141 50 -15 145 -15 198 -1 57 16 115 77
115 121 0 43 -29 82 -80 108 -20 10 -106 37 -191 60 -187 49 -279 92 -342 159
-111 119 -99 323 27 439 114 105 304 147 488 108z m1380 -596 c130 -322 238
-588 238 -592 0 -5 -63 -8 -139 -8 l-139 0 -30 83 c-16 45 -35 99 -43 120
l-13 37 -227 0 -227 0 -42 -120 -42 -120 -139 0 c-77 0 -139 3 -139 8 0 4 107
271 237 595 l238 587 115 -2 114 -3 238 -585z m823 225 l200 -364 3 364 2 365
130 0 130 0 0 -595 0 -596 -131 3 -131 3 -202 365 -201 365 -3 -367 -2 -368
-130 0 -130 0 0 595 0 595 133 0 132 -1 200 -364z"/>
<path d="M2745 3453 c-39 -108 -71 -200 -73 -205 -2 -4 64 -8 146 -8 l149 0
-71 199 c-39 110 -74 202 -77 205 -2 3 -36 -83 -74 -191z"/>
<path d="M2405 1703 c-39 -108 -71 -200 -73 -205 -2 -4 64 -8 146 -8 l149 0
-71 199 c-39 110 -74 202 -77 205 -2 3 -36 -83 -74 -191z"/>
</g>
</svg>
