<?xml version="1.0" standalone="no"?>
<!DOCTYPE svg PUBLIC "-//W3C//DTD SVG 20010904//EN"
 "http://www.w3.org/TR/2001/REC-SVG-20010904/DTD/svg10.dtd">
<svg version="1.0" xmlns="http://www.w3.org/2000/svg"
 width="500.000000pt" height="500.000000pt" viewBox="0 0 500.000000 500.000000"
 preserveAspectRatio="xMidYMid meet">
<metadata>
Created by potrace 1.14, written by Peter Selinger 2001-2017
</metadata>
<g transform="translate(0.000000,500.000000) scale(0.100000,-0.100000)"
fill="#000000" stroke="none">
<path d="M0 2500 l0 -2500 2500 0 2500 0 0 2500 0 2500 -2500 0 -2500 0 0
-2500z m4750 0 l0 -2250 -2250 0 -2250 0 0 2250 0 2250 2250 0 2250 0 0 -2250z"/>
<path d="M380 2500 l0 -2110 2120 0 2120 0 0 2110 0 2110 -2120 0 -2120 0 0
-2110z m3690 1465 l0 -165 80 0 81 0 -3 -112 -3 -113 -77 -3 -78 -3 0 -314 0
-315 -145 0 -145 0 0 315 0 314 -77 3 -78 3 -3 113 -3 112 81 0 80 0 0 165 0
165 145 0 145 0 0 -165z m-2573 -166 c37 -15 73 -38 105 -70 l48 -49 43 42
c23 22 67 53 97 67 48 23 68 26 160 26 86 0 113 -4 150 -21 101 -48 170 -156
189 -297 6 -43 11 -186 11 -318 l0 -239 -150 0 -150 0 0 268 c0 238 -2 271
-19 308 -23 50 -62 69 -127 61 -32 -3 -54 -13 -75 -33 -51 -49 -59 -100 -59
-366 l0 -238 -144 0 -144 0 -4 268 c-3 217 -7 274 -20 303 -21 47 -53 69 -102
69 -57 0 -100 -32 -133 -98 -28 -57 -28 -57 -31 -299 l-4 -243 -144 0 -144 0
0 430 0 430 145 0 145 0 0 -51 0 -51 48 44 c88 78 197 98 309 57z m1554 -11
c30 -14 72 -40 92 -58 l37 -32 0 51 0 51 145 0 145 0 0 -430 0 -430 -145 0
-145 0 0 45 c0 50 -8 55 -36 24 -43 -48 -165 -89 -262 -89 -207 1 -385 162
-422 381 -23 134 23 281 121 384 62 66 101 91 177 116 82 28 218 21 293 -13z
m-1561 -1928 c150 -28 251 -114 280 -237 l8 -33 -142 0 -141 0 -19 34 c-20 37
-74 66 -124 66 -38 0 -95 -31 -108 -59 -25 -50 -1 -62 182 -96 175 -33 236
-56 294 -114 56 -56 75 -114 67 -201 -14 -156 -133 -235 -372 -247 -266 -13
-442 74 -495 245 -11 35 -20 70 -20 78 0 11 28 14 145 14 l144 0 11 -38 c17
-65 65 -94 155 -95 105 -1 148 31 131 97 -8 34 -71 61 -201 86 -259 49 -333
95 -343 217 -16 186 126 290 399 292 53 1 120 -3 149 -9z m992 -10 c43 -13 81
-34 112 -61 l46 -41 0 51 0 51 145 0 145 0 0 -430 0 -430 -145 0 -145 0 0 49
0 48 -35 -33 c-46 -43 -133 -75 -226 -81 -401 -29 -615 482 -325 773 114 114
273 152 428 104z m1357 4 c60 -17 120 -68 157 -129 43 -74 54 -169 54 -466 l0
-269 -150 0 -149 0 -3 291 -3 291 -33 29 c-26 24 -41 29 -81 29 -61 0 -107
-29 -141 -90 -25 -44 -25 -50 -28 -297 l-3 -253 -145 0 -144 0 0 430 0 430
145 0 145 0 0 -52 0 -52 38 36 c20 20 48 41 62 49 79 40 190 50 279 23z"/>
<path d="M2880 3558 c-26 -14 -57 -41 -75 -66 -27 -40 -30 -51 -30 -122 0 -71
3 -82 30 -122 47 -66 95 -89 177 -86 57 3 73 8 105 34 76 60 105 173 68 262
-46 108 -169 153 -275 100z"/>
<path d="M2355 1615 c-72 -39 -125 -121 -125 -195 0 -85 80 -192 155 -206 101
-19 186 21 229 107 34 69 34 128 1 196 -36 71 -89 106 -169 111 -42 2 -70 -2
-91 -13z"/>
</g>
</svg>
